<?xml version="1.0"?>
<svg version="1.1" xmlns="http://www.w3.org/2000/svg" width="185" height="63" style=""><path fill="#1897f2" d="M17.716,42.924q0-1.344,0.952-2.436q0.952-1.148,2.296-1.148l0.364,0l5.236,0l0-1.736l-5.236,0l-0.364,0q-1.428-0.28-2.338-1.232t-0.91-2.268q0-1.652,0.966-2.618t2.646-0.966l9.52,0l0-1.764l-9.52,0q-2.156,0-3.752,1.596q-1.596,1.54-1.596,3.752q0,1.4,0.532,2.548t1.568,1.652q-1.036,0.756-1.568,1.988t-0.532,2.632q0,2.184,1.596,3.724q1.624,1.624,3.752,1.624l9.52,0l0-1.848l-9.52,0q-1.68,0-2.646-0.952t-0.966-2.548z M41.73552,28.588q-3.136,0-5.264,2.268q-2.1,2.24-2.1,5.46l0,11.984l1.764,0l0-8.792l11.256,0l0,8.792l1.764,0l0-11.984q0-3.22-2.1-5.46q-2.184-2.268-5.32-2.268z M47.39152,37.772l-11.256,0l0-1.456q0-2.408,1.624-4.172q1.652-1.792,3.976-1.792t4.032,1.792q1.624,1.764,1.624,4.172l0,1.456z M57.94304,30.744l10.556,0l0-2.128l-10.556,0q-2.072,0-3.472,1.624q-1.428,1.652-1.428,4.004q0,2.128,1.428,3.696q1.4,1.596,3.472,1.596l2.8,0l2.856,0q1.26,0,2.24,1.064q0.924,1.12,0.924,2.436q0,1.568-0.91,2.548t-2.254,0.98l-10.556,0l0,1.736l10.556,0q2.1,0,3.5-1.456t1.4-3.808q0-2.128-1.4-3.696q-1.428-1.568-3.5-1.568l-2.856,0l-2.8,0q-1.288,0-2.212-1.12q-0.952-1.036-0.952-2.408q0-1.568,0.91-2.534t2.254-0.966z M87.33856,28.7l-1.736,0l0,2.072q0,2.576-1.792,4.312q-1.764,1.68-4.2,1.68q-2.604,0-4.284-1.68t-1.68-4.312l0-2.072l-1.736,0l0,2.072q0,3.136,1.904,5.32q1.876,2.212,4.76,2.408l0,9.828l1.764,0l0-9.828q2.94-0.224,4.956-2.408q2.044-2.184,2.044-5.32l0-2.072z"/><path fill="#1897f2" d="M100.53808,30.744l10.556,0l0-2.128l-10.556,0q-2.072,0-3.472,1.624q-1.428,1.652-1.428,4.004q0,2.128,1.428,3.696q1.4,1.596,3.472,1.596l2.8,0l2.856,0q1.26,0,2.24,1.064q0.924,1.12,0.924,2.436q0,1.568-0.91,2.548t-2.254,0.98l-10.556,0l0,1.736l10.556,0q2.1,0,3.5-1.456t1.4-3.808q0-2.128-1.4-3.696q-1.428-1.568-3.5-1.568l-2.856,0l-2.8,0q-1.288,0-2.212-1.12q-0.952-1.036-0.952-2.408q0-1.568,0.91-2.534t2.254-0.966z M130.5496,28.644l-1.764,0l0,8.96l-11.816,0l0-8.96l-1.764,0l0,19.656l1.764,0l0-8.932l11.816,0l0,8.932l1.764,0l0-19.656z M142.52912,28.7q-3.164,0-5.432,2.268q-2.296,2.296-2.296,5.46l0,4.228q0,3.108,2.296,5.404t5.432,2.296q3.164,0,5.46-2.296q2.268-2.268,2.268-5.404l0-4.228q0-3.192-2.268-5.46t-5.46-2.268z M148.52112,36.428l0,4.228q0,2.548-1.792,4.284q-1.764,1.68-4.2,1.68t-4.172-1.68q-1.792-1.736-1.792-4.284l0-4.228q0-2.352,1.792-4.2q1.792-1.792,4.172-1.792q2.352,0,4.2,1.792q1.792,1.848,1.792,4.2z M165.03664,28.7l-8.792,0l-1.736,0l0,19.684l1.736,0l0-9.856l8.792,0q2.128,0,3.528-1.4t1.4-3.5q0-1.904-1.4-3.388q-1.484-1.54-3.528-1.54z M165.03664,36.792l-8.792,0l0-6.356l8.792,0q1.288,0,2.268,0.924q0.924,0.98,0.924,2.268q0,1.316-0.924,2.24q-0.98,0.924-2.268,0.924z"/></svg>
